<svg width="128" height="128" viewBox="0 0 128 128" fill="none" xmlns="http://www.w3.org/2000/svg">
  <rect width="128" height="128" rx="32" fill="url(#paint0_linear_1_2)"/>
  <path d="M26.656 76V51.296H42.32C45.4347 51.296 47.8827 52.0667 49.664 53.608C51.4453 55.1493 52.336 57.2507 52.336 59.912C52.336 62.62 51.4453 64.7447 49.664 66.286C47.8827 67.8273 45.4347 68.598 42.32 68.598H33.204V76H26.656ZM33.204 63.702H41.236C42.5907 63.702 43.598 63.3867 44.258 62.756C44.918 62.1253 45.248 61.2247 45.248 60.054C45.248 58.8833 44.918 57.99 44.258 57.374C43.598 56.758 42.5907 56.45 41.236 56.45H33.204V63.702Z" fill="white"/>
  <path d="M55.8994 76V51.296H72.1574C75.3014 51.296 77.7494 52.0373 79.5014 53.52C81.2534 55.0027 82.1294 57.0673 82.1294 59.714C82.1294 61.2753 81.7707 62.6007 81.0534 63.69C80.3507 64.7793 79.3214 65.6307 77.9654 66.244C79.6294 66.7693 80.8947 67.6647 81.7614 68.93C82.6427 70.1807 83.0834 71.6513 83.0834 73.342C83.0834 76.15 82.1567 78.346 80.3034 79.93C78.4501 81.4993 75.8841 82.284 72.6054 82.284H55.8994V76ZM62.4474 70.846H71.4174C72.8601 70.846 73.9254 70.5453 74.6134 69.944C75.3161 69.328 75.6674 68.4207 75.6674 67.222C75.6674 66.038 75.3161 65.1527 74.6134 64.566C73.9254 63.9793 72.8601 63.686 71.4174 63.686H62.4474V70.846ZM62.4474 58.862H70.9774C72.1414 58.862 73.0161 58.598 73.6014 58.07C74.2014 57.542 74.5014 56.7807 74.5014 55.786C74.5014 54.7767 74.2014 54.0007 73.6014 53.458C73.0161 52.9007 72.1414 52.622 70.9774 52.622H62.4474V58.862Z" fill="white"/>
  <path d="M86.271 76V51.296H105.311V56.626H92.819V61.264H103.989V66.594H92.819V76H86.271Z" fill="white"/>
  <defs>
    <linearGradient id="paint0_linear_1_2" x1="8" y1="12" x2="120" y2="116" gradientUnits="userSpaceOnUse">
      <stop stop-color="#2452E6"/>
      <stop offset="1" stop-color="#43B5F7"/>
    </linearGradient>
  </defs>
</svg>
